<svg width="34" height="33" viewBox="0 0 34 33" fill="none" xmlns="http://www.w3.org/2000/svg">
<path d="M16.7337 32.4173L10.0955 26.018L20.0719 16.2577H33.5267C33.507 16.2957 33.4872 16.3147 33.4674 16.3526L16.793 32.3983L16.7337 32.4173ZM9.30528 25.2585C7.60623 23.6064 5.90717 21.9734 4.18836 20.3213V20.2834L8.2977 16.3716C8.27795 16.3526 8.31746 16.2953 8.2977 16.2573L10.8947 16.257H13.5459H18.8483L9.30528 25.2585ZM3.41785 19.5808L0 16.2573H6.61202C5.54517 17.2827 4.54397 18.5174 3.47712 19.5618C3.45737 19.5618 3.43761 19.5618 3.41785 19.5808Z" fill="#6088B7"/>
<path d="M20.0718 16.257C16.7132 13.0289 13.4592 9.66537 10.1203 6.43725V6.39927L16.7387 0H16.7782L33.5317 16.257C33.5515 16.2191 33.512 16.295 33.5317 16.257H20.0718ZM8.31354 16.257C8.29379 16.2381 8.28296 16.1976 8.2632 16.1596C6.88025 14.8304 5.51705 13.5011 4.1341 12.1909V12.1529L9.25102 7.23479L18.8482 16.257H8.31354ZM0.0859375 16.257L3.26481 12.9884L6.61195 16.257H0.0859375ZM3.48213 19.4067C3.46238 19.4257 3.44262 19.4257 3.42286 19.4447L3.48213 19.4067Z" fill="#00639E"/>
</svg>
